<svg width="1000" height="1000" viewBox="0 0 1000 1000" xmlns="http://www.w3.org/2000/svg"><defs/><path d="M 0 0 L 1000 0 L 1000 1000 L 0 1000 Z"/><path fill="#777777" transform="matrix(0.2558539396702683 0 0 0.2558539396702683 14.73409199452869 112.11446048719925)" d="M 886.58409288438 1635.43551960063 L 698.88409288438 1635.43551960063 C 690.48409288438 1635.43551960063 682.98409288438 1630.33551960063 679.88409288438 1622.63551960063 L 588.58409288438 1395.13551960063 L 549.18409288438 1395.13551960063 C 537.88409288438 1395.13551960063 528.68409288438 1385.93551960063 528.68409288438 1374.63551960063 C 528.68409288438 1363.33551960063 537.88409288438 1354.13551960063 549.18409288438 1354.13551960063 L 602.38409288438 1354.13551960063 C 610.78409288438 1354.13551960063 618.28409288438 1359.23551960063 621.38409288438 1366.93551960063 L 712.68409288438 1594.53551960063 L 873.48409288438 1594.53551960063 L 931.18409288438 1469.53551960063 C 935.88409288438 1459.23551960063 948.08409288438 1454.83551960063 958.38409288438 1459.53551960063 C 968.68409288438 1464.23551960063 973.08409288438 1476.43551960063 968.38409288438 1486.73551960063 L 905.18409288438 1623.53551960063 C 901.88409288438 1630.83551960063 894.58409288438 1635.43551960063 886.58409288438 1635.43551960063 Z"/><path fill="#ffffff" transform="matrix(0.2558539396702683 0 0 0.2558539396702683 14.73409199452869 112.11446048719925)" d="M 764.78409288438 1677.53551960063 C 764.78409288438 1692.39197937108 752.74055265483 1704.43551960063 737.88409288438 1704.43551960063 C 723.02763311393 1704.43551960063 710.98409288438 1692.39197937108 710.98409288438 1677.53551960063 C 710.98409288438 1662.67905983018 723.02763311393 1650.63551960063 737.88409288438 1650.63551960063 C 752.74055265483 1650.63551960063 764.78409288438 1662.67905983018 764.78409288438 1677.53551960063 Z"/><path fill="#ffffff" transform="matrix(0.2558539396702683 0 0 0.2558539396702683 14.73409199452869 112.11446048719925)" d="M 877.18409288438 1677.53551960063 C 877.18409288438 1692.39197937108 865.14055265483 1704.43551960063 850.28409288438 1704.43551960063 C 835.42763311393 1704.43551960063 823.38409288438 1692.39197937108 823.38409288438 1677.53551960063 C 823.38409288438 1662.67905983018 835.42763311393 1650.63551960063 850.28409288438 1650.63551960063 C 865.14055265483 1650.63551960063 877.18409288438 1662.67905983018 877.18409288438 1677.53551960063 Z"/><path fill="#ffffff" transform="matrix(0.2558539396702683 0 0 0.2558539396702683 14.73409199452869 112.11446048719925)" d="M 946.38409288438 1351.83551960063 L 920.98409288438 1350.93551960063 L 907.28409288438 1329.53551960063 C 905.58409288438 1326.83551960063 903.28409288438 1327.03551960063 902.18409288438 1330.13551960063 L 893.48409288438 1354.03551960063 L 868.88409288438 1360.43551960063 C 865.78409288438 1361.23551960063 865.28409288438 1363.53551960063 867.78409288438 1365.53551960063 L 887.78409288438 1381.23551960063 L 886.28409288438 1406.63551960063 C 886.08409288438 1409.83551960063 888.08409288438 1411.03551960063 890.78409288438 1409.23551960063 L 911.88409288438 1395.03551960063 L 935.58409288438 1404.33551960063 C 938.58409288438 1405.53551960063 940.28409288438 1403.93551960063 939.38409288438 1400.83551960063 L 932.38409288438 1376.33551960063 L 948.58409288438 1356.73551960063 C 950.58409288438 1354.13551960063 949.68409288438 1352.03551960063 946.38409288438 1351.83551960063 Z"/><path fill="#777777" transform="matrix(0.2558539396702683 0 0 0.2558539396702683 14.73409199452869 112.11446048719925)" d="M 875.18409288438 1386.03551960063 C 875.08409288438 1385.63551960063 874.68409288438 1385.33551960063 874.28409288438 1385.43551960063 C 848.98409288438 1390.73551960063 823.78409288438 1397.93551960063 799.58409288438 1408.13551960063 C 775.38409288438 1418.33551960063 751.98409288438 1431.63551960063 731.48409288438 1449.33551960063 C 721.28409288438 1458.23551960063 711.78409288438 1468.23551960063 703.48409288438 1479.23551960063 C 695.18409288438 1490.33551960063 688.18409288438 1502.53551960063 682.68409288438 1515.53551960063 C 678.28409288438 1526.13551960063 674.88409288438 1537.23551960063 672.68409288438 1548.63551960063 C 678.48409288438 1559.43551960063 685.28409288438 1569.73551960063 690.78409288438 1580.73551960063 C 693.88409288438 1586.93551960063 697.18409288438 1593.23551960063 700.68409288438 1599.23551960063 C 702.28409288438 1601.93551960063 704.08409288438 1604.63551960063 706.08409288438 1607.03551960063 C 708.28409288438 1602.53551960063 708.58409288438 1597.23551960063 706.58409288438 1592.33551960063 C 706.48409288438 1592.03551960063 706.28409288438 1591.43551960063 706.18409288438 1590.83551960063 C 705.98409288438 1590.23551960063 705.88409288438 1589.63551960063 705.68409288438 1588.93551960063 C 705.38409288438 1587.63551960063 705.08409288438 1586.33551960063 704.88409288438 1584.93551960063 C 704.38409288438 1582.23551960063 703.98409288438 1579.43551960063 703.78409288438 1576.53551960063 C 703.18409288438 1570.83551960063 703.08409288438 1565.13551960063 703.18409288438 1559.33551960063 C 703.58409288438 1547.73551960063 705.38409288438 1536.13551960063 708.68409288438 1524.83551960063 C 711.98409288438 1513.53551960063 716.78409288438 1502.53551960063 722.78409288438 1492.13551960063 C 728.88409288438 1481.73551960063 736.18409288438 1471.93551960063 744.58409288438 1462.93551960063 C 761.28409288438 1444.83551960063 781.88409288438 1429.73551960063 804.08409288438 1417.33551960063 C 826.28409288438 1404.93551960063 850.18409288438 1395.03551960063 874.68409288438 1386.93551960063 C 875.08409288438 1386.73551960063 875.28409288438 1386.43551960063 875.18409288438 1386.03551960063 Z"/><path fill="#777777" transform="matrix(0.2558539396702683 0 0 0.2558539396702683 14.73409199452869 112.11446048719925)" d="M 875.18409288438 1385.83551960063 C 874.98409288438 1385.43551960063 874.58409288438 1385.33551960063 874.18409288438 1385.43551960063 C 851.48409288438 1396.33551960063 829.28409288438 1408.93551960063 808.58409288438 1424.03551960063 C 787.98409288438 1439.13551960063 768.78409288438 1456.93551960063 753.28409288438 1478.53551960063 C 745.58409288438 1489.33551960063 738.88409288438 1501.03551960063 733.78409288438 1513.53551960063 C 728.58409288438 1526.03551960063 724.98409288438 1539.43551960063 723.28409288438 1553.13551960063 C 721.48409288438 1566.83551960063 721.68409288438 1580.93551960063 723.68409288438 1594.83551960063 C 724.68409288438 1601.73551960063 726.18409288438 1608.63551960063 728.18409288438 1615.53551960063 C 728.68409288438 1617.33551960063 729.28409288438 1619.03551960063 729.78409288438 1620.83551960063 C 741.88409288438 1623.13551960063 754.88409288438 1620.83551960063 767.38409288438 1617.83551960063 C 767.18409288438 1617.63551960063 766.88409288438 1617.13551960063 766.58409288438 1616.73551960063 C 766.28409288438 1616.23551960063 765.98409288438 1615.73551960063 765.58409288438 1615.13551960063 C 764.98409288438 1614.03551960063 764.28409288438 1612.93551960063 763.68409288438 1611.73551960063 C 762.48409288438 1609.33551960063 761.28409288438 1606.93551960063 760.18409288438 1604.33551960063 C 758.08409288438 1599.23551960063 756.28409288438 1594.03551960063 754.78409288438 1588.63551960063 C 751.88409288438 1577.83551960063 750.48409288438 1566.53551960063 750.58409288438 1555.23551960063 C 750.68409288438 1543.83551960063 752.38409288438 1532.43551960063 755.58409288438 1521.23551960063 C 758.78409288438 1510.03551960063 763.38409288438 1499.13551960063 769.18409288438 1488.63551960063 C 780.78409288438 1467.63551960063 796.78409288438 1448.73551960063 814.98409288438 1431.83551960063 C 833.18409288438 1414.93551960063 853.48409288438 1400.13551960063 874.78409288438 1386.73551960063 C 875.18409288438 1386.63551960063 875.38409288438 1386.23551960063 875.18409288438 1385.83551960063 Z"/><path id="text" fill="#ffffff" transform="matrix(1.386993553979608 0 0 1.386993553979608 143.92027638766677 95.60280502676191)" d="M 153.58410173142 325.74000685208 L 138.12810173142 325.74000685208 L 124.78410173142 300.39600685208 L 115.18410173142 300.39600685208 L 115.18410173142 325.74000685208 L 101.84010173142 325.74000685208 L 101.84010173142 272.07600685208 C 101.84010173142 266.95600685208 103.02410173142 263.22800685208 105.39210173142 260.89200685208 C 107.76010173142 258.55600685208 111.72810173142 257.38800685208 117.29610173142 257.38800685208 L 128.62410173142 257.38800685208 C 135.40810173142 257.38800685208 140.80010173142 259.45200685208 144.80010173142 263.58000685208 C 148.80010173142 267.70800685208 150.80010173142 272.94000685208 150.80010173142 279.27600685208 C 150.80010173142 283.88400685208 149.60010173142 287.86800685208 147.20010173142 291.22800685208 C 144.80010173142 294.58800685208 141.84010173142 296.90800685208 138.32010173142 298.18800685208 L 153.58410173142 325.74000685208 Z M 134.72010173142 286.33200685208 C 136.54410173142 284.38000685208 137.45610173142 281.94800685208 137.45610173142 279.03600685208 C 137.45610173142 276.12400685208 136.57610173142 273.77200685208 134.81610173142 271.98000685208 C 133.05610173142 270.18800685208 130.70410173142 269.29200685208 127.76010173142 269.29200685208 L 121.13610173142 269.29200685208 C 117.16810173142 269.29200685208 115.18410173142 271.30800685208 115.18410173142 275.34000685208 L 115.18410173142 289.26000685208 L 127.76010173142 289.26000685208 C 130.57610173142 289.26000685208 132.89610173142 288.28400685208 134.72010173142 286.33200685208 Z M 216.17610173142 291.27600685208 L 216.27210173142 298.66800685208 C 216.01610173142 303.34000685208 215.44010173142 307.27600685208 214.54410173142 310.47600685208 C 213.64810173142 313.67600685208 211.88810173142 316.58800685208 209.26410173142 319.21200685208 C 204.91210173142 323.56400685208 198.57610173142 325.74000685208 190.25610173142 325.74000685208 C 180.46410173142 325.74000685208 173.74410173142 324.44400685208 170.09610173142 321.85200685208 C 166.44810173142 319.26000685208 164.62410173142 314.57200685208 164.62410173142 307.78800685208 L 164.62410173142 257.38800685208 L 191.21610173142 257.38800685208 C 198.89610173142 257.38800685208 204.91210173142 259.56400685208 209.26410173142 263.91600685208 C 212.78410173142 267.43600685208 214.86410173142 271.72400685208 215.50410173142 276.78000685208 C 215.95210173142 280.36400685208 216.17610173142 285.19600685208 216.17610173142 291.27600685208 Z M 202.30410173142 303.51600685208 C 202.65610173142 300.92400685208 202.83210173142 296.87600685208 202.83210173142 291.37200685208 C 202.83210173142 285.86800685208 202.65610173142 281.88400685208 202.30410173142 279.42000685208 C 201.95210173142 276.95600685208 201.16810173142 274.98800685208 199.95210173142 273.51600685208 C 197.64810173142 270.70000685208 194.32010173142 269.29200685208 189.96810173142 269.29200685208 L 177.96810173142 269.29200685208 L 177.96810173142 307.11600685208 C 177.96810173142 309.67600685208 178.83210173142 311.43600685208 180.56010173142 312.39600685208 C 182.28810173142 313.35600685208 185.37610173142 313.83600685208 189.82410173142 313.83600685208 C 194.27210173142 313.83600685208 197.64810173142 312.42800685208 199.95210173142 309.61200685208 C 201.16810173142 308.14000685208 201.95210173142 306.10800685208 202.30410173142 303.51600685208 Z M 273.96810173142 305.58000685208 C 273.96810173142 312.04400685208 271.60010173142 317.11600685208 266.86410173142 320.79600685208 C 262.12810173142 324.47600685208 256.08010173142 326.31600685208 248.72010173142 326.31600685208 C 242.89610173142 326.31600685208 237.26410173142 324.71600685208 231.82410173142 321.51600685208 C 229.13610173142 319.85200685208 226.92810173142 317.50000685208 225.20010173142 314.46000685208 C 223.47210173142 311.42000685208 222.60810173142 307.94800685208 222.60810173142 304.04400685208 L 234.70410173142 303.46800685208 C 234.70410173142 306.92400685208 236.17610173142 309.61200685208 239.12010173142 311.53200685208 C 242.06410173142 313.45200685208 245.32810173142 314.41200685208 248.91210173142 314.41200685208 C 256.91210173142 314.41200685208 260.91210173142 311.59600685208 260.91210173142 305.96400685208 C 260.91210173142 301.35600685208 258.19210173142 298.63600685208 252.75210173142 297.80400685208 L 241.61610173142 296.65200685208 C 236.04810173142 295.82000685208 231.63210173142 293.83600685208 228.36810173142 290.70000685208 C 225.10410173142 287.56400685208 223.47210173142 283.05200685208 223.47210173142 277.16400685208 C 223.47210173142 271.27600685208 225.80810173142 266.41200685208 230.48010173142 262.57200685208 C 235.15210173142 258.73200685208 241.05610173142 256.81200685208 248.19210173142 256.81200685208 C 255.32810173142 256.81200685208 261.07210173142 258.62000685208 265.42410173142 262.23600685208 C 269.77610173142 265.85200685208 271.95210173142 270.50800685208 271.95210173142 276.20400685208 L 260.04810173142 276.78000685208 C 258.96010173142 271.21200685208 255.21610173142 268.42800685208 248.81610173142 268.42800685208 C 244.91210173142 268.42800685208 241.85610173142 269.26000685208 239.64810173142 270.92400685208 C 237.44010173142 272.58800685208 236.33610173142 274.55600685208 236.33610173142 276.82800685208 C 236.33610173142 279.10000685208 237.13610173142 280.89200685208 238.73610173142 282.20400685208 C 240.33610173142 283.51600685208 242.32010173142 284.33200685208 244.68810173142 284.65200685208 L 255.63210173142 285.80400685208 C 267.85610173142 287.46800685208 273.96810173142 294.06000685208 273.96810173142 305.58000685208 Z M 329.07210173142 269.29200685208 L 310.73610173142 269.29200685208 L 310.73610173142 325.74000685208 L 297.39210173142 325.74000685208 L 297.39210173142 269.29200685208 L 279.15210173142 269.29200685208 L 279.15210173142 257.38800685208 L 329.07210173142 257.38800685208 L 329.07210173142 269.29200685208 Z M 389.55210173142 288.39600685208 L 389.55210173142 293.58000685208 C 389.55210173142 305.03600685208 387.39210173142 313.35600685208 383.07210173142 318.54000685208 C 378.75210173142 323.72400685208 371.82410173142 326.31600685208 362.28810173142 326.31600685208 C 352.75210173142 326.31600685208 345.85610173142 323.72400685208 341.60010173142 318.54000685208 C 337.34410173142 313.35600685208 335.21610173142 304.94000685208 335.21610173142 293.29200685208 L 335.21610173142 288.30000685208 C 335.21610173142 277.67600685208 337.37610173142 269.77200685208 341.69610173142 264.58800685208 C 346.01610173142 259.40400685208 352.86410173142 256.81200685208 362.24010173142 256.81200685208 C 371.61610173142 256.81200685208 378.51210173142 259.43600685208 382.92810173142 264.68400685208 C 387.34410173142 269.93200685208 389.55210173142 277.83600685208 389.55210173142 288.39600685208 Z M 376.20810173142 293.29200685208 L 376.20810173142 289.74000685208 C 376.20810173142 283.59600685208 375.44010173142 278.70000685208 373.90410173142 275.05200685208 C 372.11210173142 270.82800685208 368.27210173142 268.71600685208 362.38410173142 268.71600685208 C 356.43210173142 268.71600685208 352.56010173142 270.82800685208 350.76810173142 275.05200685208 C 349.29610173142 278.50800685208 348.56010173142 283.40400685208 348.56010173142 289.74000685208 L 348.56010173142 293.29200685208 C 348.56010173142 301.54800685208 349.71210173142 307.11600685208 352.01610173142 309.99600685208 C 352.91210173142 311.21200685208 354.24010173142 312.25200685208 356.00010173142 313.11600685208 C 357.76010173142 313.98000685208 359.87210173142 314.41200685208 362.33610173142 314.41200685208 C 364.80010173142 314.41200685208 366.89610173142 313.99600685208 368.62410173142 313.16400685208 C 370.35210173142 312.33200685208 371.69610173142 311.30800685208 372.65610173142 310.09200685208 C 373.61610173142 308.87600685208 374.35210173142 307.27600685208 374.86410173142 305.29200685208 C 375.76010173142 302.15600685208 376.20810173142 298.15600685208 376.20810173142 293.29200685208 Z M 453.00810173142 325.74000685208 L 437.55210173142 325.74000685208 L 424.20810173142 300.39600685208 L 414.60810173142 300.39600685208 L 414.60810173142 325.74000685208 L 401.26410173142 325.74000685208 L 401.26410173142 272.07600685208 C 401.26410173142 266.95600685208 402.44810173142 263.22800685208 404.81610173142 260.89200685208 C 407.18410173142 258.55600685208 411.15210173142 257.38800685208 416.72010173142 257.38800685208 L 428.04810173142 257.38800685208 C 434.83210173142 257.38800685208 440.22410173142 259.45200685208 444.22410173142 263.58000685208 C 448.22410173142 267.70800685208 450.22410173142 272.94000685208 450.22410173142 279.27600685208 C 450.22410173142 283.88400685208 449.02410173142 287.86800685208 446.62410173142 291.22800685208 C 444.22410173142 294.58800685208 441.26410173142 296.90800685208 437.74410173142 298.18800685208 L 453.00810173142 325.74000685208 Z M 434.14410173142 286.33200685208 C 435.96810173142 284.38000685208 436.88010173142 281.94800685208 436.88010173142 279.03600685208 C 436.88010173142 276.12400685208 436.00010173142 273.77200685208 434.24010173142 271.98000685208 C 432.48010173142 270.18800685208 430.12810173142 269.29200685208 427.18410173142 269.29200685208 L 420.56010173142 269.29200685208 C 416.59210173142 269.29200685208 414.60810173142 271.30800685208 414.60810173142 275.34000685208 L 414.60810173142 289.26000685208 L 427.18410173142 289.26000685208 C 430.00010173142 289.26000685208 432.32010173142 288.28400685208 434.14410173142 286.33200685208 Z M 509.07210173142 325.74000685208 L 484.88010173142 325.74000685208 C 477.20010173142 325.74000685208 471.80810173142 324.41200685208 468.70410173142 321.75600685208 C 465.60010173142 319.10000685208 464.04810173142 314.41200685208 464.04810173142 307.69200685208 L 464.04810173142 257.38800685208 L 509.07210173142 257.38800685208 L 509.07210173142 269.29200685208 L 477.39210173142 269.29200685208 L 477.39210173142 285.32400685208 L 499.56810173142 285.32400685208 L 498.60810173142 297.22800685208 L 477.39210173142 297.22800685208 L 477.39210173142 306.73200685208 C 477.39210173142 309.42000685208 478.00010173142 311.27600685208 479.21610173142 312.30000685208 C 480.43210173142 313.32400685208 482.64010173142 313.83600685208 485.84010173142 313.83600685208 L 509.07210173142 313.83600685208 L 509.07210173142 325.74000685208 Z"/></svg>